<?xml version="1.0" encoding="UTF-8" standalone="no"?>
<!-- Uploaded to: SVG Repo, www.svgrepo.com, Generator: SVG Repo Mixer Tools -->

<svg
   fill="#000000"
   height="800px"
   width="800px"
   version="1.1"
   id="Capa_1"
   viewBox="0 0 460.775 460.775"
   xml:space="preserve"
   sodipodi:docname="X.svg"
   inkscape:version="1.4.3 (0d15f75042, 2025-12-25)"
   xmlns:inkscape="http://www.inkscape.org/namespaces/inkscape"
   xmlns:sodipodi="http://sodipodi.sourceforge.net/DTD/sodipodi-0.dtd"
   xmlns="http://www.w3.org/2000/svg"
   xmlns:svg="http://www.w3.org/2000/svg"><defs
   id="defs1" /><sodipodi:namedview
   id="namedview1"
   pagecolor="#515151"
   bordercolor="#000000"
   borderopacity="0.25"
   inkscape:showpageshadow="2"
   inkscape:pageopacity="0.0"
   inkscape:pagecheckerboard="0"
   inkscape:deskcolor="#d1d1d1"
   inkscape:zoom="1.43375"
   inkscape:cx="541.58675"
   inkscape:cy="545.77158"
   inkscape:window-width="2560"
   inkscape:window-height="1405"
   inkscape:window-x="0"
   inkscape:window-y="0"
   inkscape:window-maximized="1"
   inkscape:current-layer="Capa_1" />
<path
   d="m 353.60586,117.10666 86.38958,-85.190814 c 3.06714,-3.025267 3.06714,-7.920849 0,-10.945123 L 423.48512,4.6824803 c -1.47047,-1.449161 -3.46592,-2.265086 -5.54871,-2.265086 -2.08328,0 -4.07874,0.815925 -5.54921,2.265086 L 325.99762,89.879767 239.60805,4.6824803 c -1.47047,-1.449161 -3.46593,-2.265086 -5.54922,-2.265086 -2.08278,0 -4.07874,0.815925 -5.5487,2.265086 L 211.99981,20.970723 c -3.06764,3.024274 -3.06764,7.919856 0,10.945123 l 86.38958,85.191314 -86.38101,85.18085 c -3.06611,3.02527 -3.06611,7.92085 0,10.94512 l 16.51134,16.28825 c 1.46946,1.44916 3.46542,2.26508 5.5487,2.26508 2.08329,0 4.07875,-0.81592 5.54972,-2.26508 l 86.37898,-85.18733 86.37949,85.18733 c 1.47046,1.44916 3.46591,2.26508 5.54921,2.26508 2.08378,0 4.07924,-0.81592 5.5487,-2.26508 l 16.51133,-16.28825 c 3.06613,-3.02427 3.06613,-7.91985 0,-10.94512 z"
   id="path1"
   style="fill:#ffffff;stroke-width:0.501297" />
<rect
   style="fill:#ffffff;stroke:#ffffff;stroke-width:0"
   id="rect1"
   width="171.00427"
   height="40.904678"
   x="39.768436"
   y="105.1023"
   rx="4.7879076"
   ry="4.6779814" /><rect
   style="fill:#ffffff;stroke:#ffffff;stroke-width:0"
   id="rect2"
   width="43.177162"
   height="323.8287"
   x="39.768436"
   y="106.80666"
   rx="4.7879076"
   ry="4.6779814" /><rect
   style="fill:#ffffff;stroke:#ffffff;stroke-width:0"
   id="rect3"
   width="311.33008"
   height="37.495956"
   x="39.768436"
   y="393.1394"
   rx="3.8755882"
   ry="4.6779814" /><rect
   style="fill:#ffffff;stroke:#ffffff;stroke-width:0"
   id="rect4"
   width="39.200317"
   height="209.37057"
   x="312.48203"
   y="221.26477"
   rx="4.7879076"
   ry="4.7755833" /></svg>
