<?xml version="1.0" encoding="UTF-8" standalone="no"?>
<svg
   fill="none"
   viewBox="0 0 24 24"
   id="Mac-Finder-Logo--Streamline-Logos"
   height="24"
   width="24"
   version="1.1"
   sodipodi:docname="macos.svg"
   inkscape:version="1.4.3 (0d15f75042, 2025-12-25)"
   xmlns:inkscape="http://www.inkscape.org/namespaces/inkscape"
   xmlns:sodipodi="http://sodipodi.sourceforge.net/DTD/sodipodi-0.dtd"
   xmlns="http://www.w3.org/2000/svg"
   xmlns:svg="http://www.w3.org/2000/svg">
  <defs
     id="defs1" />
  <sodipodi:namedview
     id="namedview1"
     pagecolor="#686868"
     bordercolor="#000000"
     borderopacity="0.25"
     inkscape:showpageshadow="2"
     inkscape:pageopacity="0.0"
     inkscape:pagecheckerboard="0"
     inkscape:deskcolor="#d1d1d1"
     inkscape:zoom="25.916667"
     inkscape:cx="11.980707"
     inkscape:cy="12"
     inkscape:window-width="1536"
     inkscape:window-height="880"
     inkscape:window-x="0"
     inkscape:window-y="0"
     inkscape:window-maximized="1"
     inkscape:current-layer="Mac-Finder-Logo--Streamline-Logos" />
  <desc
     id="desc1">
    Mac Finder Logo Streamline Icon: https://streamlinehq.com
  </desc>
  <path
     fill="#000000"
     fill-rule="evenodd"
     d="M11.995 1H5a4 4 0 0 0 -4 4v14a4 4 0 0 0 4 4h8.566c-0.292 -1.067 -0.559 -2.412 -0.773 -3.78 -0.257 0.02 -0.52 0.03 -0.793 0.03 -3.882 0 -6.337 -2.153 -7.124 -3.334a0.75 0.75 0 0 1 1.248 -0.832c0.546 0.82 2.558 2.666 5.876 2.666 0.199 0 0.392 -0.007 0.58 -0.02a41.46 41.46 0 0 1 -0.314 -3.48H10a0.75 0.75 0 0 1 -0.75 -0.75c0 -4.425 1.767 -9.934 2.745 -12.5Zm3.133 22c-0.312 -1.022 -0.613 -2.478 -0.854 -4.015 2.538 -0.614 4.089 -2.149 4.802 -3.005a0.75 0.75 0 1 0 -1.152 -0.96 7.524 7.524 0 0 1 -3.862 2.471c-0.195 -1.53 -0.312 -2.982 -0.312 -3.991a0.75 0.75 0 0 0 -0.75 -0.75h-2.233c0.197 -4.37 2.01 -9.696 2.839 -11.75H19a4 4 0 0 1 4 4v14a4 4 0 0 1 -4 4h-3.872ZM6.5 6.75a0.75 0.75 0 0 1 0.75 0.75v2a0.75 0.75 0 0 1 -1.5 0v-2a0.75 0.75 0 0 1 0.75 -0.75Zm10.75 0.75a0.75 0.75 0 0 0 -1.5 0v2a0.75 0.75 0 0 0 1.5 0v-2Z"
     clip-rule="evenodd"
     stroke-width="1"
     id="path1"
     style="fill:#ffffff" />
</svg>
