<?xml version="1.0" encoding="UTF-8" standalone="no"?>
<!-- Uploaded to: SVG Repo, www.svgrepo.com, Generator: SVG Repo Mixer Tools -->

<svg
   fill="#000000"
   width="800px"
   height="800px"
   viewBox="0 0 32 32"
   version="1.1"
   id="svg1"
   sodipodi:docname="steam.svg"
   inkscape:version="1.4.3 (0d15f75042, 2025-12-25)"
   xmlns:inkscape="http://www.inkscape.org/namespaces/inkscape"
   xmlns:sodipodi="http://sodipodi.sourceforge.net/DTD/sodipodi-0.dtd"
   xmlns="http://www.w3.org/2000/svg"
   xmlns:svg="http://www.w3.org/2000/svg"
   xmlns:rdf="http://www.w3.org/1999/02/22-rdf-syntax-ns#"
   xmlns:cc="http://creativecommons.org/ns#"
   xmlns:dc="http://purl.org/dc/elements/1.1/">
  <defs
     id="defs1" />
  <sodipodi:namedview
     id="namedview1"
     pagecolor="#ffffff"
     bordercolor="#000000"
     borderopacity="0.25"
     inkscape:showpageshadow="2"
     inkscape:pageopacity="0.0"
     inkscape:pagecheckerboard="0"
     inkscape:deskcolor="#d1d1d1"
     inkscape:zoom="1.43375"
     inkscape:cx="400"
     inkscape:cy="400"
     inkscape:window-width="2560"
     inkscape:window-height="1405"
     inkscape:window-x="0"
     inkscape:window-y="0"
     inkscape:window-maximized="1"
     inkscape:current-layer="svg1" />
  <title
     id="title1">steam</title>
  <path
     d="M18.102 12.129c0-0 0-0 0-0.001 0-1.564 1.268-2.831 2.831-2.831s2.831 1.268 2.831 2.831c0 1.564-1.267 2.831-2.831 2.831-0 0-0 0-0.001 0h0c-0 0-0 0-0.001 0-1.563 0-2.83-1.267-2.83-2.83 0-0 0-0 0-0.001v0zM24.691 12.135c0-2.081-1.687-3.768-3.768-3.768s-3.768 1.687-3.768 3.768c0 2.081 1.687 3.768 3.768 3.768v0c2.080-0.003 3.765-1.688 3.768-3.767v-0zM10.427 23.76l-1.841-0.762c0.524 1.078 1.611 1.808 2.868 1.808 1.317 0 2.448-0.801 2.93-1.943l0.008-0.021c0.155-0.362 0.246-0.784 0.246-1.226 0-1.757-1.424-3.181-3.181-3.181-0.405 0-0.792 0.076-1.148 0.213l0.022-0.007 1.903 0.787c0.852 0.364 1.439 1.196 1.439 2.164 0 1.296-1.051 2.347-2.347 2.347-0.324 0-0.632-0.066-0.913-0.184l0.015 0.006zM15.974 1.004c-7.857 0.001-14.301 6.046-14.938 13.738l-0.004 0.054 8.038 3.322c0.668-0.462 1.495-0.737 2.387-0.737 0.001 0 0.002 0 0.002 0h-0c0.079 0 0.156 0.005 0.235 0.008l3.575-5.176v-0.074c0.003-3.12 2.533-5.648 5.653-5.648 3.122 0 5.653 2.531 5.653 5.653s-2.531 5.653-5.653 5.653h-0.131l-5.094 3.638c0 0.065 0.005 0.131 0.005 0.199 0 0.001 0 0.002 0 0.003 0 2.342-1.899 4.241-4.241 4.241-2.047 0-3.756-1.451-4.153-3.38l-0.005-0.027-5.755-2.383c1.841 6.345 7.601 10.905 14.425 10.905 8.281 0 14.994-6.713 14.994-14.994s-6.713-14.994-14.994-14.994c-0 0-0.001 0-0.001 0h0z"
     id="path1"
     style="fill:#ffffff" />
  <metadata
     id="metadata1">
    <rdf:RDF>
      <cc:Work
         rdf:about="">
        <dc:title>steam</dc:title>
      </cc:Work>
    </rdf:RDF>
  </metadata>
</svg>
