<?xml version="1.0" encoding="UTF-8" standalone="no"?>
<svg
   t="1724046574546"
   class="icon"
   viewBox="0 0 1024 1024"
   version="1.1"
   p-id="52879"
   width="16"
   height="16"
   id="svg1"
   sodipodi:docname="local.svg"
   inkscape:version="1.4 (e7c3feb100, 2024-10-09)"
   xmlns:inkscape="http://www.inkscape.org/namespaces/inkscape"
   xmlns:sodipodi="http://sodipodi.sourceforge.net/DTD/sodipodi-0.dtd"
   xmlns="http://www.w3.org/2000/svg"
   xmlns:svg="http://www.w3.org/2000/svg">
  <defs
     id="defs1" />
  <sodipodi:namedview
     id="namedview1"
     pagecolor="#ffffff"
     bordercolor="#000000"
     borderopacity="0.25"
     inkscape:showpageshadow="2"
     inkscape:pageopacity="0.0"
     inkscape:pagecheckerboard="0"
     inkscape:deskcolor="#d1d1d1"
     inkscape:zoom="54.5625"
     inkscape:cx="8"
     inkscape:cy="8"
     inkscape:window-width="2048"
     inkscape:window-height="1124"
     inkscape:window-x="0"
     inkscape:window-y="0"
     inkscape:window-maximized="1"
     inkscape:current-layer="svg1" />
  <path
     d="M512 54c194.402 0 352 157.536 352 351.875 0 70.143-18.691 141.765-53.11 214.017-28.685 60.214-67.546 119.345-114.038 176.663-35.956 44.33-74.412 85.077-112.885 121.398l-2.442 2.299-2.42 2.267-2.4 2.235-2.377 2.203-2.355 2.17-2.332 2.138-2.308 2.105-2.286 2.072-2.26 2.04-2.237 2.005-2.212 1.973-2.186 1.939-2.161 1.905-2.135 1.872-2.108 1.837-2.08 1.804-2.42 2.083-2.669 2.28-2.52 2.135-2.371 1.99-1.678 1.394-1.549 1.278-2.023 1.65-0.82 0.654c-11.663 9.054-28.04 8.958-39.603-0.29l-1.777-1.44-1.842-1.516-2.084-1.73-2.37-1.99-2.521-2.135-2.67-2.28-2.418-2.083-2.081-1.804-2.108-1.837-2.135-1.872-2.16-1.905-2.187-1.94-2.212-1.972-2.236-2.006-2.261-2.039-2.286-2.072-2.308-2.105-2.332-2.137-2.355-2.17-2.377-2.204-2.4-2.235-2.42-2.267-2.442-2.3c-38.473-36.32-76.929-77.067-112.885-121.397-46.492-57.318-85.353-116.449-114.037-176.663C178.69 547.64 160 476.018 160 405.875 160 211.536 317.598 54 512 54z m0 64c-159.061 0-288 128.888-288 287.875 0 59.806 16.309 122.298 46.89 186.493 26.315 55.241 62.454 110.232 105.962 163.87 34.044 41.97 70.588 80.692 107.115 115.177l1.258 1.186 2.498 2.345 2.472 2.307 2.447 2.27c0.406 0.375 0.81 0.75 1.214 1.121l2.407 2.214 2.38 2.177 2.353 2.138 2.324 2.1 2.296 2.063 2.267 2.024 2.237 1.985 1.88 1.659 3.003-2.654 1.126-1 2.276-2.032 2.304-2.07 2.334-2.11 2.361-2.146 2.39-2.186 2.416-2.223 2.444-2.26 2.47-2.299 2.494-2.336 2.415-2.273c36.527-34.485 73.071-73.206 107.115-115.177 43.508-53.638 79.647-108.629 105.963-163.87C783.69 528.173 800 465.68 800 405.875 800 246.888 671.061 118 512 118z m0 127.925c88.363 0 160 71.61 160 159.95 0 88.34-71.637 159.95-160 159.95s-160-71.61-160-159.95c0-88.34 71.637-159.95 160-159.95z m0 64c-53.022 0-96 42.961-96 95.95 0 52.989 42.978 95.95 96 95.95s96-42.961 96-95.95c0-52.989-42.978-95.95-96-95.95z"
     p-id="52880"
     id="path1"
     style="fill:#ffffff" />
</svg>
