<?xml version="1.0" encoding="UTF-8" standalone="no"?>
<!-- Created with Inkscape (http://www.inkscape.org/) -->

<svg
   width="100mm"
   height="100mm"
   viewBox="0 0 100 100"
   version="1.1"
   id="svg1"
   inkscape:version="1.4.2 (ebf0e940d0, 2025-05-08)"
   sodipodi:docname="A.svg"
   xmlns:inkscape="http://www.inkscape.org/namespaces/inkscape"
   xmlns:sodipodi="http://sodipodi.sourceforge.net/DTD/sodipodi-0.dtd"
   xmlns="http://www.w3.org/2000/svg"
   xmlns:svg="http://www.w3.org/2000/svg">
  <sodipodi:namedview
     id="namedview1"
     pagecolor="#ffffff"
     bordercolor="#000000"
     borderopacity="0.25"
     inkscape:showpageshadow="2"
     inkscape:pageopacity="0.0"
     inkscape:pagecheckerboard="0"
     inkscape:deskcolor="#d1d1d1"
     inkscape:document-units="mm"
     inkscape:zoom="0.64"
     inkscape:cx="100.78125"
     inkscape:cy="171.09375"
     inkscape:window-width="1536"
     inkscape:window-height="888"
     inkscape:window-x="0"
     inkscape:window-y="0"
     inkscape:window-maximized="1"
     inkscape:current-layer="layer1" />
  <defs
     id="defs1" />
  <g
     inkscape:label="Layer 1"
     inkscape:groupmode="layer"
     id="layer1">
    <ellipse
       style="fill:#292929;fill-opacity:1;stroke-width:0.26723"
       id="path1"
       cx="50.002907"
       cy="50.015125"
       rx="49.996006"
       ry="49.994884" />
    <path
       d="m 56.537845,65.926396 q -0.284403,-0.663607 -0.568806,-1.185013 -0.900609,-0.142201 -2.607027,-0.142201 -1.659017,0 -3.555036,-0.0474 -1.848619,-0.0948 -3.033632,-0.0948 -1.137611,0 -2.227823,0.0474 -1.090211,0.0474 -2.370024,0.0474 -1.232413,0 -2.559627,-0.0474 h -1.327213 q -0.0474,0.0474 -0.0474,0.0474 0,0.0474 0,0.0948 -0.379204,0.568806 -0.616206,1.042811 -0.616206,1.185012 -1.232413,2.559626 -0.474005,0.805809 -0.900609,1.706418 0,-0.237002 0,0.0474 -0.474005,0.805808 -0.521405,0.900609 0,-0.284403 0,0.0474 -0.0474,-0.189602 -0.0948,0.189602 -0.758408,1.659017 -1.84862,3.507637 -1.04281,1.848619 -2.417425,3.412835 -1.327213,1.564216 -2.275223,2.512226 -0.94801,0.94801 -1.279813,1.327213 -0.237003,0.474005 -0.663607,0.995411 -0.379204,0.474005 -1.042811,0.474005 -0.758408,0 -1.090211,-0.94801 -0.142202,-0.474005 -0.331804,-1.422015 -0.521405,-3.270634 -0.521405,-5.119253 0,-1.848619 0.284403,-2.844029 0.284403,-1.279813 2.038221,-5.071852 1.753818,-3.79204 3.365435,-8.247686 0.521405,-1.279813 1.99082,-6.114663 1.516816,-4.88225 3.365435,-10.191105 3.412835,-8.958692 3.934241,-11.044314 0.237002,-0.99541 0.758408,-2.417425 0.237002,-1.659017 0.474004,-1.374614 0.331804,-0.99541 1.422015,-3.128432 1.137612,-2.180423 1.327214,-2.796629 0.426604,-1.279814 1.516816,-2.89143 0.900609,-1.327214 1.469415,-1.753818 0.331803,-0.237003 0.521405,-0.237003 0.237003,-0.0474 0.331804,-0.0474 0.521405,0 0.948009,0.331803 0.426605,0.331804 0.805809,0.900609 0.758407,1.042811 1.848619,3.318035 1.04281,1.94342 2.93883,5.83026 2.275224,3.555037 4.550447,9.053493 1.94342,4.029042 2.701828,6.636069 0.568806,1.801219 1.564216,4.929651 1.801219,5.640658 2.180423,7.441877 0.521405,2.89143 1.801218,6.399066 1.279813,3.460235 1.469415,4.123842 0.474005,1.422015 1.042811,4.645248 0.0948,0.426605 0.426605,2.464826 0.331803,2.038221 0.521405,2.986231 0.663607,3.602437 0.663607,4.977051 0,0.616206 -0.142202,0.99541 -0.237002,-0.331803 -0.474005,1.279813 -0.521405,-1.374614 -1.04281,-0.900609 -0.284403,-1.090211 -0.568806,-0.426604 -0.0474,-0.94801 -0.142202,-0.142202 -0.142201,-0.237002 -0.663607,-0.853209 -0.474004,-0.663606 -1.137611,-1.516815 -0.616207,-0.900609 -0.995411,-1.848619 -0.805808,-1.611617 -2.559626,-3.412835 -1.753818,-1.84862 -2.275223,-3.033632 -0.142202,-0.426604 -0.94801,-1.896019 -0.758408,-1.469416 -0.90061,-1.848619 -0.521405,-1.042811 -0.948009,-1.564217 -0.284403,-0.284403 -0.331804,-0.663606 z M 41.180087,54.929482 h 0.758407 q 0.237003,0 2.654428,0.0948 2.417425,0.0474 3.602437,0.0474 0.237003,0 4.88225,-0.142201 -0.711007,-1.374614 -1.374614,-3.128432 -0.663607,-1.753818 -1.564216,-3.981641 -0.853209,-2.085622 -1.564216,-4.455646 -0.616206,-1.89602 -1.469415,-3.79204 -0.94801,1.94342 -1.611617,3.744639 -0.189602,0.663607 -0.853209,2.417425 -0.616206,1.706418 -0.711007,2.180423 -1.990821,5.071852 -2.749228,7.015272 z"
       id="text2"
       style="font-weight:bold;font-size:97.0762px;line-height:0;font-family:Cyrenia;-inkscape-font-specification:'Cyrenia Bold';fill:#ffffff;stroke:#ffffff;stroke-width:0"
       transform="scale(1.0682658,0.93609661)"
       aria-label="A" />
  </g>
</svg>
