<?xml version="1.0" encoding="UTF-8" standalone="no"?>
<!-- Created with Inkscape (http://www.inkscape.org/) -->

<svg
   width="100mm"
   height="100mm"
   viewBox="0 0 100 100"
   version="1.1"
   id="svg1"
   inkscape:version="1.4.2 (ebf0e940d0, 2025-05-08)"
   sodipodi:docname="B.svg"
   xmlns:inkscape="http://www.inkscape.org/namespaces/inkscape"
   xmlns:sodipodi="http://sodipodi.sourceforge.net/DTD/sodipodi-0.dtd"
   xmlns="http://www.w3.org/2000/svg"
   xmlns:svg="http://www.w3.org/2000/svg">
  <sodipodi:namedview
     id="namedview1"
     pagecolor="#ffffff"
     bordercolor="#000000"
     borderopacity="0.25"
     inkscape:showpageshadow="2"
     inkscape:pageopacity="0.0"
     inkscape:pagecheckerboard="0"
     inkscape:deskcolor="#d1d1d1"
     inkscape:document-units="mm"
     inkscape:zoom="1.28"
     inkscape:cx="331.64063"
     inkscape:cy="261.32813"
     inkscape:window-width="1536"
     inkscape:window-height="888"
     inkscape:window-x="0"
     inkscape:window-y="0"
     inkscape:window-maximized="1"
     inkscape:current-layer="layer1" />
  <defs
     id="defs1" />
  <g
     inkscape:label="Layer 1"
     inkscape:groupmode="layer"
     id="layer1">
    <ellipse
       style="fill:#292929;fill-opacity:1;stroke-width:0.26723"
       id="path1"
       cx="50.002907"
       cy="50.015125"
       rx="49.996006"
       ry="49.994884" />
    <path
       d="m 30.800815,31.454386 c -0.252803,0 -1.535314,0.0554 -2.202816,0.221396 -1.269856,0.572804 -1.907328,0.51418 -2.444533,0.51418 -0.537205,0 -0.96381,-0.237003 -1.279813,-0.711008 -1.134408,-1.962193 0.55133,-2.542015 1.611616,-3.792039 1.232413,-1.232413 2.449026,-2.196223 3.649838,-2.89143 1.327214,-0.790008 2.101422,-1.279813 2.322624,-1.469415 0.884809,-0.600406 2.749229,-1.121811 5.593258,-1.564216 1.137612,-0.189602 2.480626,-0.284403 4.029041,-0.284403 0.0316,0.474005 0.0474,0.474005 0.0474,0 6.130463,0.189602 10.412308,0.679407 12.845533,1.469415 5.277254,1.864419 8.73749,5.545857 10.380707,11.044314 0.695207,2.275224 0.774208,4.629448 0.237002,7.062673 -0.474005,2.117222 -1.200812,3.792039 -2.180422,5.024452 -0.97961,1.264013 -2.512226,2.322624 -4.597848,3.175833 -0.442405,0.221202 -1.090211,0.474005 -1.94342,0.758408 2.022421,0.821609 3.744639,1.864419 5.166654,3.128432 1.611617,1.453615 3.065232,3.570837 4.360845,6.351666 v 0 c 0.884809,1.92762 1.406214,3.175833 1.564216,3.744638 0.505605,1.864419 0.758408,3.713039 0.758408,5.545858 0,0.600406 -0.0316,1.216612 -0.0948,1.848619 -0.158002,0.884809 -0.568806,2.02242 -1.232413,3.412835 -0.695207,1.390415 -1.422015,2.433225 -2.180423,3.128432 -2.117221,2.148823 -5.356255,4.060643 -9.7171,5.73546 -2.938831,1.042811 -7.078473,1.753818 -12.418928,2.133022 -1.738018,0.126401 -3.175833,0.189601 -4.313445,0.189601 -1.106011,0 -1.92762,-0.0632 -2.464825,-0.189601 -0.537206,-0.126401 -1.343014,-0.252803 -2.417425,-0.379204 -1.074411,-0.0948 -1.282956,-0.252803 -1.883362,-0.474005 -1.344069,-0.523141 -0.73708,-5.687299 -0.855347,-7.899105 0.16235,-2.64262 0.0984,-5.133076 0.0984,-7.968206 v -0.492416 c 0,-8.577062 0.377013,-17.668273 -0.17345,-26.349535 -0.185968,-2.932864 0.256205,-5.336024 0.143056,-7.544441 -0.03423,-0.67711 -0.408228,-2.48021 -0.408228,-2.48021 z m 9.193594,45.67124 c 0.821609,0.0948 1.406215,0.142201 1.753818,0.142201 0.347603,0 0.616206,-0.0158 0.805808,-0.0474 h 0.0474 c 0.0948,0 0.268602,-0.0158 0.521405,-0.0474 1.011211,-0.252803 2.069822,-0.426604 3.175833,-0.521405 0.252803,-0.0948 0.695207,-0.158002 1.327214,-0.189602 0.632007,-0.0632 1.074411,-0.110601 1.327213,-0.142202 0.0316,-0.600406 0.0474,-0.616206 0.0474,-0.0474 3.728839,-0.505605 5.909261,-0.837409 6.541267,-0.99541 0.442405,-0.126401 1.058611,-0.568806 1.84862,-1.327214 1.295613,-1.453615 1.97502,-3.017831 2.038221,-4.692648 v -0.474005 c 0,-0.744801 -0.152962,-4.306739 -1.422014,-5.688059 -0.181823,-0.181823 -1.247176,-2.638911 -2.938829,-3.839439 -1.959221,-1.453615 -3.491837,-2.385824 -4.597848,-2.796629 0,-0.0316 -0.0158,-0.0474 -0.0474,-0.0474 h -0.0948 c -0.158002,-0.0632 -0.584607,-0.205401 -1.279814,-0.426604 -0.695207,-0.252803 -1.248212,-0.442405 -1.659017,-0.568806 -0.695207,-0.158002 -1.643216,-0.237003 -2.844029,-0.237003 -2.085621,0 -3.555037,0.0316 -4.408246,0.0948 0,0.221203 0.0474,0.679407 0.142202,1.374614 0.221202,1.832819 0.331803,4.850651 0.331803,9.053494 0,4.108042 -0.079,6.557067 -0.237002,7.347076 v 1.185012 c 0,0.632007 -0.0632,1.264013 -0.189602,1.89602 -0.0948,0.347603 -0.158002,0.679407 -0.189602,0.99541 z M 39.567805,30.578345 c 0.126401,0.726807 0.189602,3.254833 0.189602,7.584078 0,4.83485 0.0316,8.058083 0.0948,9.6697 0.221203,-0.0316 0.379204,-0.0632 0.474005,-0.0948 4.75916,-1.219481 7.242679,-0.0799 11.852736,-1.916832 0.916409,-0.442405 3.935522,-2.998175 4.219925,-3.250978 0.790009,-0.758408 1.668754,-2.748072 1.668754,-4.644091 0,-2.275223 -1.688449,-4.329245 -3.71087,-6.162064 -1.074411,-0.884809 -2.449025,-1.548415 -4.123842,-1.99082 -1.643217,-0.379204 -2.82823,-0.568806 -3.555037,-0.568806 -0.0632,0 -0.252802,0.0158 -0.568806,0.0474 -0.284403,0.0316 -1.295613,0.221202 -3.033631,0.568806 -1.706418,0.347604 -2.87563,0.600406 -3.507636,0.758407 z"
       id="text2"
       style="font-weight:bold;font-size:97.0762px;line-height:0;font-family:Cyrenia;-inkscape-font-specification:'Cyrenia Bold';fill:#ffffff;stroke-width:0"
       aria-label="B"
       transform="scale(1.0682658,0.93609661)"
       sodipodi:nodetypes="scsccccccccccccccsscscccccsscccssscsccsccccccccscccscccsccscscsscsccccsccscccs" />
  </g>
</svg>
