<?xml version="1.0" encoding="UTF-8" standalone="no"?>
<!-- Created with Inkscape (http://www.inkscape.org/) -->

<svg
   width="100mm"
   height="100mm"
   viewBox="0 0 100 100"
   version="1.1"
   id="svg1"
   inkscape:version="1.4.2 (ebf0e940d0, 2025-05-08)"
   sodipodi:docname="C.svg"
   xmlns:inkscape="http://www.inkscape.org/namespaces/inkscape"
   xmlns:sodipodi="http://sodipodi.sourceforge.net/DTD/sodipodi-0.dtd"
   xmlns="http://www.w3.org/2000/svg"
   xmlns:svg="http://www.w3.org/2000/svg">
  <sodipodi:namedview
     id="namedview1"
     pagecolor="#ffffff"
     bordercolor="#000000"
     borderopacity="0.25"
     inkscape:showpageshadow="2"
     inkscape:pageopacity="0.0"
     inkscape:pagecheckerboard="0"
     inkscape:deskcolor="#d1d1d1"
     inkscape:document-units="mm"
     inkscape:zoom="0.64"
     inkscape:cx="174.21875"
     inkscape:cy="342.96875"
     inkscape:window-width="1536"
     inkscape:window-height="888"
     inkscape:window-x="0"
     inkscape:window-y="0"
     inkscape:window-maximized="1"
     inkscape:current-layer="layer1" />
  <defs
     id="defs1" />
  <g
     inkscape:label="Layer 1"
     inkscape:groupmode="layer"
     id="layer1">
    <ellipse
       style="fill:#292929;fill-opacity:1;stroke-width:0.26723"
       id="path1"
       cx="50.002907"
       cy="50.015125"
       rx="49.996006"
       ry="49.994884" />
    <path
       d="m 19.890543,60.204847 q -0.900609,-3.033632 -0.900609,-7.631479 0,-3.792039 0.426604,-5.78286 0.758408,-3.033631 3.365435,-8.152884 1.327214,-2.749228 5.356255,-6.967872 4.218644,-4.408246 10.048904,-7.678879 3.318034,-1.801219 5.451056,-2.370025 2.180423,-0.616206 6.493867,-0.900609 0.995411,-0.0474 2.227823,-0.0474 2.559627,0 3.744639,0.379204 2.512226,0.805809 4.83485,2.085622 2.322624,1.279813 3.223233,2.370024 0.379204,0.474005 0.379204,0.853209 0,0.853209 -0.711007,1.137612 -0.284403,0.0948 -0.474005,0.0948 -0.189602,0 -0.474005,0 -0.426604,0 -1.516816,-0.142202 -1.090211,-0.189602 -4.597847,-0.474004 -0.616207,0 -0.758408,-0.0474 -0.99541,0 -1.611617,0.189602 -6.967872,1.706418 -11.233916,4.83485 -2.512226,1.848619 -5.640658,5.166653 -3.081032,3.318035 -4.740049,6.114663 -2.180422,3.649838 -2.275223,9.053494 0,-0.94801 0,0.0474 0,0.426605 0,0.853209 0,2.512226 0.474005,4.83485 1.04281,4.218644 4.503046,9.527499 2.038221,3.128432 3.507636,4.503046 1.469415,1.327214 5.403656,3.602437 4.171243,2.322624 6.541268,2.84403 0.853208,0.237002 1.564216,0.426604 h 0.0474 q 0.0948,-0.900609 0.189602,0.0474 0.426605,0.189602 2.701828,0.521406 1.327214,-0.663607 2.607027,0.521405 2.133022,0.474005 3.981641,0.474005 h 0.0474 q 1.516815,0.0948 2.370024,0.379204 0.900609,0.237002 1.279813,0.663607 0.616207,0.616206 0.616207,1.279813 0,0 0,0 0,1.279813 -2.038221,2.038221 -2.749229,1.042811 -9.717101,1.137612 h -3.697238 q -0.0474,-0.94801 -0.0948,0 Q 47.003623,85.801111 42.690178,84.7583 36.670316,83.336286 32.499073,80.255254 28.375231,77.126821 25.957806,73.14518 25.720803,72.908178 25.389,72.244571 24.914995,71.391362 24.820194,71.296561 23.729983,69.495343 22.070966,65.987706 20.459349,62.43267 19.890543,60.204847 Z"
       id="text2"
       style="font-weight:bold;font-size:97.0762px;line-height:0;font-family:Cyrenia;-inkscape-font-specification:'Cyrenia Bold';fill:#ffffff;stroke:#ffffff;stroke-width:2"
       transform="scale(1.0682658,0.9360966)"
       aria-label="C" />
  </g>
</svg>
