<?xml version="1.0" encoding="UTF-8" standalone="no"?>
<!-- Created with Inkscape (http://www.inkscape.org/) -->

<svg
   width="100mm"
   height="100mm"
   viewBox="0 0 100 100"
   version="1.1"
   id="svg1"
   inkscape:version="1.4.2 (ebf0e940d0, 2025-05-08)"
   sodipodi:docname="E.svg"
   xmlns:inkscape="http://www.inkscape.org/namespaces/inkscape"
   xmlns:sodipodi="http://sodipodi.sourceforge.net/DTD/sodipodi-0.dtd"
   xmlns="http://www.w3.org/2000/svg"
   xmlns:svg="http://www.w3.org/2000/svg">
  <sodipodi:namedview
     id="namedview1"
     pagecolor="#ffffff"
     bordercolor="#000000"
     borderopacity="0.25"
     inkscape:showpageshadow="2"
     inkscape:pageopacity="0.0"
     inkscape:pagecheckerboard="0"
     inkscape:deskcolor="#d1d1d1"
     inkscape:document-units="mm"
     inkscape:zoom="0.64"
     inkscape:cx="237.5"
     inkscape:cy="146.09375"
     inkscape:window-width="1536"
     inkscape:window-height="888"
     inkscape:window-x="0"
     inkscape:window-y="0"
     inkscape:window-maximized="1"
     inkscape:current-layer="layer1" />
  <defs
     id="defs1" />
  <g
     inkscape:label="Layer 1"
     inkscape:groupmode="layer"
     id="layer1">
    <ellipse
       style="fill:#292929;fill-opacity:1;stroke-width:0.26723"
       id="path1"
       cx="50.002907"
       cy="50.015125"
       rx="49.996006"
       ry="49.994884" />
    <path
       d="m 69.38821,80.343635 c -0.947089,0.549923 -3.284259,0.962364 -7.011512,1.237325 -1.374806,0.122205 -3.818906,0.183308 -7.332299,0.183308 -3.574497,0 -6.125525,-0.03055 -7.653088,-0.09166 -3.055125,-0.122205 -5.606154,-0.183307 -7.653088,-0.183307 h -0.04583 c -2.352446,-0.0611 -3.834181,-0.152758 -4.445206,-0.274962 -0.336064,-0.09166 -0.595749,-0.259686 -0.779057,-0.504096 -0.336064,-0.488819 -0.595749,-1.634491 -0.779057,-3.437015 -0.152755,-1.833075 -0.229134,-4.674341 -0.229134,-8.523798 v -1.054018 c 0,-2.291344 -0.0611,-4.261899 -0.183307,-5.911667 -0.0611,-0.397165 -0.10693,-1.390081 -0.137481,-2.978747 -0.03055,-1.588664 -0.04583,-2.688509 -0.04583,-3.299534 -0.0611,-3.452292 -0.245308,-5.697621 -0.140047,-6.994207 0.113018,-1.392111 -5.35e-4,-3.393217 -0.12274,-6.112279 -0.305513,-6.201903 -0.356471,-11.293281 -1.242455,-15.601007 -11.547662,-0.52207 -1.581005,-5.920317 3.384144,-6.899988 h 0.04583 c 0.152756,-0.03055 0.473544,-0.09165 0.962364,-0.183307 0.488819,-0.122205 0.901261,-0.213858 1.237325,-0.274961 2.352446,-0.519371 5.086783,-0.779057 8.203011,-0.779057 h 0.504096 c 2.994022,0 6.675447,0.381891 11.044275,1.145672 2.138588,-0.213859 4.185522,0.168032 6.140801,1.145672 h 0.04583 c 1.558114,0.213858 2.871818,0.656852 3.941111,1.328979 0.611025,0.397166 1.084569,0.748505 1.420633,1.054018 0.549922,0.519371 0.824884,1.115121 0.824884,1.787249 0,0.488819 -0.198583,0.855434 -0.595749,1.099844 -0.397167,0.336064 -1.390083,0.641577 -2.978747,0.916538 -1.558114,0.24441 -4.032765,0.473544 -7.423954,0.687403 -2.077484,0.09165 -4.323001,0.259685 -6.73655,0.504095 -0.03055,-0.611024 -0.04583,-0.611024 -0.04583,0 -2.596856,0.213859 -4.582687,0.458269 -5.957493,0.73323 -2.688509,0.458269 -4.567411,0.794333 -5.636706,1.008191 0.213859,0.763781 0.458269,1.95528 0.73323,3.574496 0.03055,-0.611025 0.04583,-0.611025 0.04583,0 0.152756,1.405358 0.442992,2.917645 0.87071,4.536861 0.427718,1.588664 0.73323,3.895284 0.916538,6.919858 0.0611,0.794332 0.122206,1.328979 0.183307,1.60394 h 0.549923 c 0.305512,0 0.947088,-0.04583 1.924728,-0.137481 0.427718,-0.03055 0.992915,-0.04583 1.695595,-0.04583 3.177329,0 6.186627,0.473545 9.027894,1.420634 2.169138,0.702678 3.55922,1.405357 4.170244,2.108036 0.305513,0.397166 0.45827,0.824884 0.45827,1.283152 0,0.672128 -0.336064,1.344255 -1.008191,2.016383 -0.580475,0.458268 -1.451185,0.824883 -2.612132,1.099845 -1.588666,0.397166 -3.421741,0.611025 -5.499226,0.641576 -2.291343,0.122205 -4.18552,0.274961 -5.682531,0.458268 -1.1915,0.09166 -2.046935,0.152757 -2.566306,0.183308 -0.03055,1.374806 -0.0611,3.360637 -0.09166,5.957493 0,4.613238 -0.152757,7.698914 -0.458269,9.257029 -0.09166,0.641576 -0.168032,1.191498 -0.229134,1.649767 1.649767,0.09166 4.750719,0.183307 9.302855,0.274962 5.040956,0.122205 7.943325,0.24441 8.707106,0.366615 1.435908,0.27496 3.543944,0.885986 6.324108,1.833074 1.130396,0.397166 2.001107,0.809609 2.612132,1.237326 0.885986,0.611024 1.328979,1.35953 1.328979,2.245516 0,0.48882 -0.152756,0.901262 -0.458269,1.237326 -0.213858,0.24441 -0.488819,0.427718 -0.824883,0.549923 z"
       id="text2"
       style="font-weight:bold;font-size:89.025px;line-height:0;font-family:Cyrenia;-inkscape-font-specification:'Cyrenia Bold';fill:#ffffff;stroke:#ffffff;stroke-width:1.1824"
       aria-label="E"
       sodipodi:nodetypes="scsssccccsscscsccccccsscccccsccccccccccccscsccsccccccccccccscss" />
  </g>
</svg>
