<?xml version="1.0" encoding="UTF-8" standalone="no"?>
<!-- Created with Inkscape (http://www.inkscape.org/) -->

<svg
   width="100mm"
   height="100mm"
   viewBox="0 0 100 100"
   version="1.1"
   id="svg1"
   inkscape:version="1.4.2 (ebf0e940d0, 2025-05-08)"
   sodipodi:docname="Q.svg"
   xmlns:inkscape="http://www.inkscape.org/namespaces/inkscape"
   xmlns:sodipodi="http://sodipodi.sourceforge.net/DTD/sodipodi-0.dtd"
   xmlns="http://www.w3.org/2000/svg"
   xmlns:svg="http://www.w3.org/2000/svg">
  <sodipodi:namedview
     id="namedview1"
     pagecolor="#ffffff"
     bordercolor="#000000"
     borderopacity="0.25"
     inkscape:showpageshadow="2"
     inkscape:pageopacity="0.0"
     inkscape:pagecheckerboard="0"
     inkscape:deskcolor="#d1d1d1"
     inkscape:document-units="mm"
     inkscape:zoom="0.64"
     inkscape:cx="237.5"
     inkscape:cy="146.09375"
     inkscape:window-width="1536"
     inkscape:window-height="888"
     inkscape:window-x="0"
     inkscape:window-y="0"
     inkscape:window-maximized="1"
     inkscape:current-layer="layer1" />
  <defs
     id="defs1" />
  <g
     inkscape:label="Layer 1"
     inkscape:groupmode="layer"
     id="layer1">
    <ellipse
       style="fill:#292929;fill-opacity:1;stroke-width:0.26723"
       id="path1"
       cx="50.002907"
       cy="50.015125"
       rx="49.996006"
       ry="49.994884" />
    <path
       d="m 40.95106,67.782213 c 1.06426,0.327465 2.333185,0.491197 3.806775,0.491197 0.682217,0 1.405368,-0.04093 2.169452,-0.122799 2.72887,-0.272887 5.212142,-0.764084 7.449816,-1.47359 2.237674,-0.736795 3.970507,-1.500879 5.198499,-2.292252 0.463908,-0.354753 1.050615,-0.927815 1.760121,-1.719188 0.682217,-0.84595 1.323502,-1.528168 1.923854,-2.046653 0.491197,-0.518485 0.84595,-1.009682 1.064259,-1.47359 0.245599,-0.491197 0.545774,-1.541812 0.900527,-3.151845 0.600352,-2.510561 0.914172,-5.034767 0.941461,-7.572616 0,-1.500879 -0.150088,-2.906247 -0.450264,-4.216105 -0.272887,-1.337147 -0.968749,-3.315578 -2.087586,-5.935293 -0.573063,-1.364435 -1.064259,-2.333184 -1.47359,-2.906247 -0.136443,-0.163733 -0.40933,-0.559419 -0.818661,-1.187059 -0.409331,-0.654929 -0.914172,-1.255281 -1.514523,-1.801055 -0.600351,-0.545774 -1.500879,-1.214347 -2.701582,-2.005719 -0.682217,-0.463908 -1.296213,-0.818661 -1.841988,-1.06426 -0.545774,-0.272887 -1.459945,-0.53213 -2.742514,-0.777728 -0.736795,-0.163732 -1.419013,-0.245598 -2.046653,-0.245598 -0.600352,0 -1.146126,0.04093 -1.637323,0.122799 -1.227991,0.163732 -2.783447,0.668573 -4.666368,1.514523 -1.855632,0.818661 -3.79313,1.992076 -5.812494,3.520243 -2.838025,2.264963 -4.775524,4.488992 -5.812495,6.672088 -0.736795,1.610034 -1.282569,3.151846 -1.637322,4.625436 -0.382042,2.183096 -0.62764,4.093305 -0.736795,5.730628 0,0.600351 0.02729,1.091548 0.08187,1.47359 0.08187,0.354753 0.272887,0.927816 0.573063,1.719188 0.300176,0.764084 0.559419,1.623678 0.777728,2.578783 0.136443,0.654929 0.368397,1.309858 0.695862,1.964787 0.109155,0.163732 0.286531,0.532129 0.53213,1.105192 0.272887,0.545774 0.491196,0.968749 0.654929,1.268925 1.146125,2.046653 2.128519,3.506598 2.94718,4.379837 1.47359,1.446301 2.974469,2.387762 4.502636,2.824381 z m 18.747341,4.461704 c -1.391724,0.62764 -2.715226,1.146125 -3.970507,1.555456 -1.282569,0.382042 -2.892603,0.682218 -4.830101,0.900527 -0.982393,0.109155 -2.428695,0.163732 -4.338904,0.163732 -2.019364,0 -3.16549,-0.02729 -3.438377,-0.08187 -0.109155,-0.02729 -0.245598,-0.05458 -0.40933,-0.08187 -0.627641,-0.109155 -1.227992,-0.204665 -1.801055,-0.286531 l -0.327464,-0.08187 c -1.364435,-0.245598 -2.442339,-0.545774 -3.233712,-0.900527 -3.629397,-1.500879 -8.780078,-4.261118 -10.026017,-9.107543 0,-0.545774 -0.361735,0.02267 -0.361735,0.568441 -2.647004,-3.411088 -3.311177,-5.678313 -4.266282,-9.798908 -0.436619,-1.801054 -0.654929,-3.943217 -0.654929,-6.42649 0,-0.764083 0.01364,-1.541811 0.04093,-2.333184 0.05458,-1.855632 0.204668,-3.206423 0.450263,-4.052373 0.272887,-0.873239 0.900528,-2.264963 1.882921,-4.175172 1.637322,-3.274645 2.974469,-5.662406 4.01144,-7.163285 1.036971,-1.500879 2.63336,-3.247356 4.789167,-5.239431 2.810737,-2.647005 5.471386,-4.516281 7.981947,-5.607829 2.510561,-1.118837 5.007477,-1.678255 7.490749,-1.678255 5.130277,0 8.977984,0.873238 11.543122,2.619715 0.982394,0.654929 2.155808,1.678256 3.520243,3.06998 1.364435,1.47359 2.31954,2.687937 2.865314,3.643042 0.05458,0.08187 0.136446,0.204665 0.245599,0.368397 l 1.350791,1.801055 c 0.736795,0.927816 1.405368,2.00572 2.00572,3.233711 0.600351,1.227992 1.132481,2.551494 1.596389,3.970507 1.146125,3.301933 1.841987,6.508356 2.087586,9.619269 0.109155,1.064259 0.163732,2.114874 0.163732,3.151845 0,3.629398 -0.613996,7.081419 -1.841988,10.356064 -0.354753,0.955105 -0.805016,1.869276 -1.350791,2.742514 -0.600351,1.146126 -1.378079,2.305896 -2.333184,3.47931 0.436619,0.927816 0.709506,1.514523 0.818661,1.760122 0.463908,1.255281 0.955105,2.346829 1.47359,3.274644 0.245599,-0.08187 0.491197,0.395686 0.736795,1.432657 v 0.04093 l 0.613996,1.596389 c 0.463908,1.091548 0.764084,2.10123 0.900528,3.029046 0.05458,0.327465 0.08187,0.613996 0.08187,0.859594 0,0.900527 -0.286532,1.528168 -0.859595,1.882921 -0.300175,0.191021 -0.641284,0.286531 -1.023326,0.286531 -0.682217,0 -1.514523,-0.245598 -2.496916,-0.736795 -1.200703,-0.600351 -2.155808,-1.241636 -2.865315,-1.923853 L 64.745951,76.490197 C 64.172888,75.889845 63.114746,73.92184 62.214219,73.075891 61.804888,72.175364 59.780267,71.807298 59.698401,72.243917 Z"
       id="text2"
       style="font-weight:bold;font-size:83.8309px;line-height:0;font-family:Cyrenia;-inkscape-font-specification:'Cyrenia Bold';fill:#ffffff;stroke:#ffffff;stroke-width:3.9"
       aria-label="Q"
       sodipodi:nodetypes="ssccccccccccccscccscccccccccccccsscccsccccccccscccsccscccccsccscccccccccscsscccc" />
  </g>
</svg>
