<?xml version="1.0" encoding="UTF-8" standalone="no"?>
<!-- Created with Inkscape (http://www.inkscape.org/) -->

<svg
   width="100mm"
   height="100mm"
   viewBox="0 0 100 100"
   version="1.1"
   id="svg1"
   inkscape:version="1.4.2 (ebf0e940d0, 2025-05-08)"
   sodipodi:docname="S.svg"
   xmlns:inkscape="http://www.inkscape.org/namespaces/inkscape"
   xmlns:sodipodi="http://sodipodi.sourceforge.net/DTD/sodipodi-0.dtd"
   xmlns="http://www.w3.org/2000/svg"
   xmlns:svg="http://www.w3.org/2000/svg">
  <sodipodi:namedview
     id="namedview1"
     pagecolor="#ffffff"
     bordercolor="#000000"
     borderopacity="0.25"
     inkscape:showpageshadow="2"
     inkscape:pageopacity="0.0"
     inkscape:pagecheckerboard="0"
     inkscape:deskcolor="#d1d1d1"
     inkscape:document-units="mm"
     inkscape:zoom="0.64"
     inkscape:cx="237.5"
     inkscape:cy="146.09375"
     inkscape:window-width="1536"
     inkscape:window-height="888"
     inkscape:window-x="0"
     inkscape:window-y="0"
     inkscape:window-maximized="1"
     inkscape:current-layer="layer1" />
  <defs
     id="defs1" />
  <g
     inkscape:label="Layer 1"
     inkscape:groupmode="layer"
     id="layer1">
    <ellipse
       style="fill:#292929;fill-opacity:1;stroke-width:0.26723"
       id="path1"
       cx="50.002907"
       cy="50.015125"
       rx="49.996006"
       ry="49.994884" />
    <path
       d="m 62.944298,28.409403 q -1.739294,0 -3.92456,-0.267583 -2.185266,-0.312181 -3.969156,-0.312181 -2.140669,-0.936543 -4.281338,-0.0446 -0.535167,0 -0.981139,0.0446 -0.401376,0 -1.337918,0.0446 -0.891946,0.0446 -1.427113,0.222987 -0.535167,0.178389 -1.337918,0.490569 -1.873085,0.847348 -3.300197,2.274461 -3.121809,3.121808 -3.43399,7.269354 0.0446,0.535167 0.08919,0.668959 0.312181,0.535167 1.650099,1.248723 1.917682,1.070335 5.574658,2.229864 3.656975,1.204126 3.701573,1.204126 3.835364,1.337918 7.358548,1.78389 5.039491,0.668959 9.410023,2.809628 4.459726,2.096071 5.530061,6.778784 0.222986,0.98114 0.222986,2.006877 0,0.356778 -0.0446,0.668959 -0.178389,5.307074 -2.542044,10.034385 -1.427113,2.854224 -3.032614,4.905699 -5.173283,6.600395 -13.423777,7.670729 -4.058351,0.624362 -9.053244,0 -3.478587,-0.401375 -5.128686,-1.114932 -0.133792,-0.08919 -0.758153,-0.267583 -0.579765,-0.222986 -0.802751,-0.356778 -3.656976,-1.337918 -6.734187,-4.593518 -1.917682,-2.096072 -2.809628,-4.727311 -0.401375,-1.29332 -0.401375,-2.319057 0,-1.694696 1.204126,-2.319058 0.312181,-0.133792 0.802751,-0.133792 0.98114,0 2.631238,1.605502 1.694696,1.560904 5.797645,4.325934 2.408252,1.382516 4.950296,1.605502 3.478587,0.356778 5.530061,0.356778 2.096071,0 3.2556,-0.178389 1.739294,-0.222986 3.612379,-1.070334 4.058351,-1.828488 5.797644,-4.994894 0.178389,-0.356778 0.222986,-0.49057 0.08919,-0.133792 0.08919,-0.401375 0.0446,-0.312181 0.0446,-0.401376 0,-1.248723 0,-0.668959 0,-1.337918 0,-0.847348 0,-1.650098 -0.178389,-2.542044 -0.133792,-1.337918 -0.267584,-0.891945 -0.178389,-0.267584 -0.758153,-0.802751 -2.27446,-2.096071 -9.499217,-3.969156 -2.720433,-0.668959 -4.013754,-1.114932 -1.739293,-0.668959 -4.771907,-2.051474 0,-0.891945 0,0 -1.560905,-0.802751 -2.94342,-1.204126 -2.720433,-0.98114 -5.351672,-2.898822 -2.586641,-1.917683 -3.835364,-4.013754 -0.668959,-1.070335 -1.204126,-2.542044 -0.445973,-1.337918 -0.445973,-3.032614 0,-2.631239 1.114932,-6.19902 1.248723,-4.013754 3.389392,-6.332812 2.185266,-2.319057 6.5112,-4.548921 3.43399,-1.605501 6.466604,-2.006876 1.29332,-0.178389 2.720433,-0.178389 3.433989,0 7.804521,0.981139 1.293321,0.401376 1.783891,0.401376 h 0.133791 q 4.147546,0.847348 7.090965,2.27446 2.631239,1.204126 3.43399,2.898822 0.178389,0.267584 0.178389,0.579765 0,0.0446 0,0.0446 0,0.49057 -0.356778,0.891945 -0.579765,0.98114 -2.675836,1.293321 -1.382515,0.222986 -3.077211,0.222986 z"
       id="text2"
       style="font-weight:bold;font-size:91.3352px;line-height:0;font-family:Cyrenia;-inkscape-font-specification:'Cyrenia Bold';fill:#ffffff;stroke:#ffffff;stroke-width:1.15068"
       aria-label="S" />
  </g>
</svg>
