<?xml version="1.0" encoding="UTF-8" standalone="no"?>
<!-- Created with Inkscape (http://www.inkscape.org/) -->

<svg
   width="100mm"
   height="100mm"
   viewBox="0 0 100 100"
   version="1.1"
   id="svg1"
   inkscape:version="1.4.2 (ebf0e940d0, 2025-05-08)"
   sodipodi:docname="Z.svg"
   xmlns:inkscape="http://www.inkscape.org/namespaces/inkscape"
   xmlns:sodipodi="http://sodipodi.sourceforge.net/DTD/sodipodi-0.dtd"
   xmlns="http://www.w3.org/2000/svg"
   xmlns:svg="http://www.w3.org/2000/svg">
  <sodipodi:namedview
     id="namedview1"
     pagecolor="#ffffff"
     bordercolor="#000000"
     borderopacity="0.25"
     inkscape:showpageshadow="2"
     inkscape:pageopacity="0.0"
     inkscape:pagecheckerboard="0"
     inkscape:deskcolor="#d1d1d1"
     inkscape:document-units="mm"
     inkscape:zoom="0.64"
     inkscape:cx="394.53125"
     inkscape:cy="294.53125"
     inkscape:window-width="1536"
     inkscape:window-height="888"
     inkscape:window-x="0"
     inkscape:window-y="0"
     inkscape:window-maximized="1"
     inkscape:current-layer="layer1" />
  <defs
     id="defs1" />
  <g
     inkscape:label="Layer 1"
     inkscape:groupmode="layer"
     id="layer1">
    <ellipse
       style="fill:#292929;fill-opacity:1;stroke-width:0.26723"
       id="path1"
       cx="50.002907"
       cy="50.015125"
       rx="49.996006"
       ry="49.994884" />
    <path
       d="m 62.926475,76.196123 q -0.04186,-0.92087 -0.08372,-0.167431 -2.00917,-0.293004 -8.413401,-0.293004 -3.348617,0 -4.855495,0.04186 -13.436326,0.04186 -18.082533,1.716166 -2.051028,0.627866 -3.432333,0.627866 -0.962727,0 -1.632451,-0.293004 -1.255731,-0.54415 -1.925454,-2.051028 -0.544151,-1.172016 0.125573,-3.264902 0.502292,-1.674308 1.130158,-2.971898 0.669723,-1.339447 1.213874,-1.967312 0.54415,-0.669724 1.590593,-1.925455 0.962727,-1.046443 1.758024,-2.134744 3.892768,-5.022926 10.296998,-11.636445 6.446088,-6.655376 10.757433,-10.715575 4.353202,-4.102056 5.357788,-4.897353 0.125573,-0.08372 0.502292,-0.376719 0.418577,-0.293004 0.92087,-0.711581 0.502293,-0.460435 0.753439,-0.586008 1.925455,-1.674309 2.553321,-2.678894 -0.125574,-0.04186 -0.418578,-0.08372 -1.883597,-0.293004 -4.478775,-0.502293 -2.553321,-0.209289 -5.232215,-0.209289 h -0.08372 Q 47.857697,30.613071 40.11402,30.278209 32.495915,29.943347 27.765993,28.771331 q -1.883597,-0.460435 -2.344032,-1.297589 -0.251146,-0.460435 -0.251146,-0.962727 0,-1.088301 1.130158,-2.218459 1.632451,-1.674309 4.018341,-2.092886 2.38589,-0.460435 8.24597,-0.460435 11.427156,0 18.082533,0.586008 0.209289,0.04186 1.004585,0.04186 0.837155,0 3.432333,-0.125573 2.637036,-0.167431 4.939211,-0.167431 5.106641,0 8.287827,0.879012 1.088301,0.251146 1.758024,0.711581 1.004585,0.753439 1.004585,1.925455 0,0.753439 -0.418577,1.632451 -0.795296,1.632451 -5.274072,6.864665 -0.711581,0.837155 -4.813637,5.31593 -4.311345,4.478776 -6.194942,6.822808 0,-0.837155 0,0 -3.934625,4.688064 -16.366367,16.826801 -2.38589,2.344033 -3.516048,3.599764 3.223044,-0.167431 7.492531,-0.167431 13.687473,0 23.27289,2.846325 0.08372,-0.795297 0.209289,0.04186 0.04186,-0.753439 0.125573,0.125573 0.08371,0.08371 0.376719,0.293004 0.334862,0.167431 0.460435,0.334861 0.167431,0.125574 0.502293,0.334862 0.334861,0.209289 0.502292,0.37672 0.167431,0.16743 0.418577,0.376719 0.293004,0.209289 0.460435,0.54415 0.711581,1.130159 0.711581,2.134744 0,1.297589 -0.586008,2.218459 -0.711581,1.172016 -2.260316,1.632451 -0.795297,0.334861 -1.925455,-0.08372 -3.055613,-0.92087 -4.604349,-1.130158 -0.669723,0 -1.883597,-0.251146 -0.209289,-0.08372 -0.334862,-0.08372 z"
       id="text2"
       style="font-weight:bold;font-size:85.7246px;font-family:Cyrenia;-inkscape-font-specification:'Cyrenia Bold';fill:#ffffff;stroke-width:0.285748"
       aria-label="Z" />
  </g>
</svg>
